<?xml version="1.0" encoding="utf-8"?>
<!-- Generator: Adobe Illustrator 23.0.6, SVG Export Plug-In . SVG Version: 6.00 Build 0)  -->
<svg version="1.1" id="Layer_1" xmlns="http://www.w3.org/2000/svg" xmlns:xlink="http://www.w3.org/1999/xlink" x="0px" y="0px"
	 viewBox="0 0 152 168" style="enable-background:new 0 0 152 168;" xml:space="preserve">
<style type="text/css">
	.st0{opacity:2.000000e-02;fill:#2C6595;}
	.st1{opacity:2.000000e-02;}
	.st2{fill:#FFFFFF;}
</style>
<line class="st0" x1="163.2" y1="56.4" x2="163.2" y2="50.7"/>
<g class="st1">
	<ellipse transform="matrix(0.866 -0.5 0.5 0.866 -10.441 66.0336)" class="st2" cx="118" cy="52.5" rx="21" ry="28.5"/>
	<path class="st2" d="M27.9,104.5c-1.7,0-2.4,1.5-2.4,3c0,1.7,1,3,2.4,3c1.3,0,2.4-1.3,2.4-3C30.3,106.1,29.6,104.5,27.9,104.5z"/>
	<path class="st2" d="M57.5,104.5c-1,0-1.9,0.7-2.1,1.7c0,0.2-0.1,0.4-0.1,0.6v1.4c0,0.2,0,0.4,0.1,0.5c0.3,1,1.1,1.6,2.1,1.6
		c1.5,0,2.4-1.2,2.4-3C59.8,105.9,59,104.5,57.5,104.5z"/>
	<path class="st2" d="M45.7,109.1c0,0.9,0.6,1.3,1.3,1.3c1,0,1.6-0.6,1.9-1.3c0-0.1,0.1-0.3,0.1-0.4v-1.3
		C47.4,107.3,45.7,107.6,45.7,109.1z"/>
	<path class="st2" d="M50.3,95.2c0,0-2.2,0.6-3.3-1.3c-1.1-1.9,0.5-3.6,0.5-3.6l25.1-29.6l25.1-29.6c-4.3-2.6-9-4.6-14-6
		C78.6,23.7,73.4,23,68,23c-16,0-30.5,6.5-41,17C16.5,50.5,10,65,10,81c0,9.2,2.1,17.8,5.9,25.5c0.4-1.8,1.9-3.1,4-3.1
		c0.8,0,1.6,0.2,2,0.4l-0.3,1.1c-0.3-0.2-0.9-0.4-1.6-0.4c-1.8,0-2.7,1.3-2.7,2.9c0,1.8,1.2,2.9,2.7,2.9c0.8,0,1.3-0.2,1.7-0.4
		l0.2,1.1c-0.4,0.2-1.2,0.4-2.2,0.4c-0.4,0-0.7-0.1-1.1-0.1c2.4,3.9,5.2,7.5,8.4,10.7c10.5,10.5,25,17,41,17
		c15.9,0,30.4-6.4,40.9-16.8c3.2-3.2,6.1-6.8,8.5-10.7c-0.1,0-0.1,0-0.2,0c-0.7,0-1.2-0.2-1.5-0.6c-0.4-0.4-0.5-1.1-0.5-2v-4.2h-1.2
		v-1.1h1.2v-1.9l1.4-0.4v2.2h2v1.1h-2v4.2c0,1,0.3,1.5,1.1,1.5c0.2,0,0.4,0,0.5,0c5-8.5,7.9-18.3,8-28.8l-37.9,6.9L50.3,95.2z
		 M27.8,111.5c-2.1,0-3.7-1.5-3.7-4c0-2.6,1.7-4.1,3.8-4.1c2.2,0,3.7,1.6,3.7,4C31.7,110.3,29.7,111.5,27.8,111.5z M36.2,111.3h-1.4
		V100h1.4V111.3z M41.2,111.3h-1.4V100h1.4V111.3z M49.2,111.3l-0.1-1h0c-0.4,0.6-1.3,1.2-2.4,1.2c-1.6,0-2.4-1.1-2.4-2.2
		c0-1.9,1.7-2.9,4.7-2.9v-0.2c0-0.6-0.2-1.8-1.8-1.8c-0.7,0-1.5,0.2-2,0.6l-0.3-0.9c0.6-0.4,1.6-0.7,2.5-0.7c2.4,0,2.9,1.6,2.9,3.2
		v2.9c0,0.7,0,1.3,0.1,1.9H49.2z M57.7,111.5c-1.1,0-2-0.4-2.6-1.5h0l-0.1,1.3h-1.2c0-0.5,0.1-1.3,0.1-2V100h1.4v4.9h0
		c0.5-0.9,1.4-1.4,2.6-1.4c1.9,0,3.3,1.6,3.3,4C61.2,110.1,59.4,111.5,57.7,111.5z M67.4,111.5c-2.1,0-3.7-1.5-3.7-4
		c0-2.6,1.7-4.1,3.8-4.1c2.2,0,3.7,1.6,3.7,4C71.3,110.3,69.3,111.5,67.4,111.5z M78.1,104.8c-0.1,0-0.3,0-0.5,0
		c-1,0-1.7,0.8-1.9,1.8c0,0.2-0.1,0.4-0.1,0.7v4.1h-1.4V106c0-0.9,0-1.7-0.1-2.4h1.2l0,1.5h0.1c0.4-1,1.2-1.7,2.1-1.7
		c0.2,0,0.3,0,0.4,0V104.8z M85,111.3l-0.1-1h0c-0.4,0.6-1.3,1.2-2.4,1.2c-1.6,0-2.4-1.1-2.4-2.2c0-1.9,1.7-2.9,4.7-2.9v-0.2
		c0-0.6-0.2-1.8-1.8-1.8c-0.7,0-1.5,0.2-2,0.6l-0.3-0.9c0.6-0.4,1.6-0.7,2.5-0.7c2.4,0,2.9,1.6,2.9,3.2v2.9c0,0.7,0,1.3,0.1,1.9H85z
		 M108.9,107.9c-1.4-0.5-2-1.3-2-2.2c0-1.2,1-2.3,2.7-2.3c0.8,0,1.5,0.2,1.9,0.5l-0.4,1c-0.3-0.2-0.9-0.4-1.6-0.4
		c-0.8,0-1.3,0.5-1.3,1.1c0,0.6,0.5,0.9,1.5,1.3c1.3,0.5,2,1.2,2,2.3c0,1.4-1.1,2.3-2.9,2.3c-0.8,0-1.6-0.2-2.2-0.5l0.4-1.1
		c0.4,0.3,1.2,0.6,1.9,0.6c1,0,1.5-0.5,1.5-1.2C110.3,108.6,109.9,108.3,108.9,107.9z M100.5,104.4c-0.7,0-1.5,0.2-2,0.6l-0.3-0.9
		c0.6-0.4,1.6-0.7,2.5-0.7c2.4,0,2.9,1.6,2.9,3.2v2.9c0,0.7,0,1.3,0.1,1.9h-1.3l-0.1-1h0c-0.4,0.6-1.3,1.2-2.4,1.2
		c-1.6,0-2.4-1.1-2.4-2.2c0-1.9,1.7-2.9,4.7-2.9v-0.2C102.2,105.6,102.1,104.4,100.5,104.4z M93.3,103.4c0.8,0,1.6,0.2,2,0.4
		l-0.3,1.1c-0.3-0.2-0.9-0.4-1.6-0.4c-1.8,0-2.7,1.3-2.7,2.9c0,1.8,1.2,2.9,2.7,2.9c0.8,0,1.3-0.2,1.7-0.4l0.2,1.1
		c-0.4,0.2-1.2,0.4-2.2,0.4c-2.3,0-3.9-1.6-3.9-4C89.2,105.2,90.8,103.4,93.3,103.4z"/>
	<path class="st2" d="M67.5,104.5c-1.7,0-2.4,1.5-2.4,3c0,1.7,1,3,2.4,3c1.3,0,2.4-1.3,2.4-3C69.8,106.1,69.2,104.5,67.5,104.5z"/>
	<path class="st2" d="M81.5,109.1c0,0.9,0.6,1.3,1.3,1.3c1,0,1.6-0.6,1.9-1.3c0-0.1,0.1-0.3,0.1-0.4v-1.3
		C83.3,107.3,81.5,107.6,81.5,109.1z"/>
	<path class="st2" d="M99,109.1c0,0.9,0.6,1.3,1.3,1.3c1,0,1.6-0.6,1.9-1.3c0-0.1,0.1-0.3,0.1-0.4v-1.3
		C100.7,107.3,99,107.6,99,109.1z"/>
</g>
</svg>
