<svg id="Layer_1" data-name="Layer 1" xmlns="http://www.w3.org/2000/svg" viewBox="0 0 151.81 63.63">
  <title>collaboracast-white</title>
  <g style="opacity: 0.1">
    <g>
      <path d="M17.25,54.23c-.43,1.79-2.18,2.66-5.33,2.66-3.62,0-5.55-1-5.55-4.28s1.93-4.29,5.55-4.29c3.09,0,4.87.68,5.26,2.57l-.95.3c-.42-1.54-1.83-2.07-4.31-2.07-3,0-4.51.89-4.51,3.49s1.52,3.5,4.51,3.5c2.48,0,3.95-.68,4.37-2.13Z" transform="translate(-0.09 -0.56)" style="fill: #fff"/>
      <path d="M19.26,52.61c0-3.25,2.09-4.29,5.72-4.29s5.66,1,5.66,4.29S28.57,56.89,25,56.89,19.26,55.84,19.26,52.61Zm1,0c0,2.6,1.65,3.5,4.66,3.5s4.64-.9,4.64-3.5S28,49.12,25,49.12,20.3,50,20.3,52.61Z" transform="translate(-0.09 -0.56)" style="fill: #fff"/>
      <path d="M33.1,56.71V45.93h1.1V56.71Z" transform="translate(-0.09 -0.56)" style="fill: #fff"/>
      <path d="M37.05,56.71V45.93h1.1V56.71Z" transform="translate(-0.09 -0.56)" style="fill: #fff"/>
      <path d="M52.47,56.6a1.26,1.26,0,0,1-.72.17,1.11,1.11,0,0,1-1.17-.83,12.41,12.41,0,0,1-5.46,1c-3.23,0-4.64-1-4.64-2.88,0-2.23,2.44-2.64,5.43-2.64a19.54,19.54,0,0,1,4.34.46c-.14-1.69-.57-2.71-4.4-2.71a7.64,7.64,0,0,0-4.63,1.16l-.56-.57c1-.86,2.69-1.39,5.28-1.39,2.78,0,4,.53,4.61,1.28a4,4,0,0,1,.72,2.08c.24,2.73-.13,4.29.8,4.29a.79.79,0,0,0,.4-.09Zm-6.25-4.55c-3.13,0-4.64.36-4.64,2,0,1.34.9,2.13,3.88,2.13a13,13,0,0,0,5-.81c-.06-.4-.08-1-.15-2.85A20.32,20.32,0,0,0,46.22,52.05Z" transform="translate(-0.09 -0.56)" style="fill: #fff"/>
      <path d="M54.47,45.93h1.1v3.42c.72-.47,2-1,4.75-1,3.17,0,5,.92,5,4.29s-1.85,4.28-5,4.28-5.19-.77-5.85-1.28Zm1.1,9.23a9.84,9.84,0,0,0,4.65,1c2.64,0,4.09-.89,4.09-3.5s-1.48-3.49-4.25-3.49c-2.48,0-3.71.5-4.49,1.1Z" transform="translate(-0.09 -0.56)" style="fill: #fff"/>
      <path d="M67.39,52.61c0-3.25,2.09-4.29,5.71-4.29s5.67,1,5.67,4.29-2.08,4.28-5.67,4.28S67.39,55.84,67.39,52.61Zm1,0c0,2.6,1.65,3.5,4.66,3.5s4.64-.9,4.64-3.5-1.65-3.49-4.64-3.49S68.43,50,68.43,52.61Z" transform="translate(-0.09 -0.56)" style="fill: #fff"/>
      <path d="M81.17,56.71V48.5h1l0,1.42c1.08-1,3.57-1.6,5.92-1.6v1c-2.24,0-4.69.48-5.85,1.48v5.94Z" transform="translate(-0.09 -0.56)" style="fill: #fff"/>
      <path d="M101.64,56.6a1.26,1.26,0,0,1-.72.17,1.11,1.11,0,0,1-1.18-.83,12.36,12.36,0,0,1-5.45,1c-3.23,0-4.65-1-4.65-2.88,0-2.23,2.44-2.64,5.43-2.64a19.39,19.39,0,0,1,4.34.46c-.13-1.69-.57-2.71-4.4-2.71a7.66,7.66,0,0,0-4.63,1.16l-.56-.57c1-.86,2.69-1.39,5.28-1.39,2.78,0,4,.53,4.61,1.28a3.92,3.92,0,0,1,.73,2.08c.24,2.73-.14,4.29.79,4.29a.83.83,0,0,0,.41-.09Zm-6.25-4.55c-3.13,0-4.65.36-4.65,2,0,1.34.9,2.13,3.88,2.13a13,13,0,0,0,5-.81c-.06-.4-.07-1-.15-2.85A20.29,20.29,0,0,0,95.39,52.05Z" transform="translate(-0.09 -0.56)" style="fill: #fff"/>
      <path d="M114.15,54.23c-.43,1.79-2.18,2.66-5.33,2.66-3.62,0-5.55-1-5.55-4.28s1.93-4.29,5.55-4.29c3.09,0,4.87.68,5.26,2.57l-1,.3c-.42-1.54-1.83-2.07-4.31-2.07-3,0-4.51.89-4.51,3.49s1.52,3.5,4.51,3.5c2.48,0,4-.68,4.37-2.13Z" transform="translate(-0.09 -0.56)" style="fill: #fff"/>
      <path d="M128,56.6a1.26,1.26,0,0,1-.72.17,1.11,1.11,0,0,1-1.18-.83,12.36,12.36,0,0,1-5.45,1c-3.23,0-4.65-1-4.65-2.88,0-2.23,2.44-2.64,5.43-2.64a19.39,19.39,0,0,1,4.34.46c-.13-1.69-.57-2.71-4.4-2.71a7.66,7.66,0,0,0-4.63,1.16l-.56-.57c1-.86,2.69-1.39,5.28-1.39,2.78,0,4,.53,4.61,1.28a3.92,3.92,0,0,1,.72,2.08c.25,2.73-.13,4.29.8,4.29a.83.83,0,0,0,.41-.09Zm-6.25-4.55c-3.13,0-4.65.36-4.65,2,0,1.34.9,2.13,3.88,2.13a13,13,0,0,0,5-.81c-.06-.4-.07-1-.15-2.85A20.29,20.29,0,0,0,121.79,52.05Z" transform="translate(-0.09 -0.56)" style="fill: #fff"/>
      <path d="M139.35,50.71c-.25-.84-2-1.65-4.24-1.65-2.84,0-4.31.56-4.31,1.61,0,1.32,1.92,1.58,3.16,1.58.84,0,1.68-.06,2.55-.06,2.36,0,3.8.52,3.8,2.13S138.83,57,134.89,57c-2.66,0-4.66-.74-5.35-2.27l1-.27c.51,1.17,2.1,1.78,4.4,1.78,3.07,0,4.29-.67,4.29-1.86S138.07,53,136.41,53c-.8,0-1.61.06-2.53.06-1.65,0-4.15-.42-4.15-2.33,0-1.49,1.65-2.38,5.37-2.38,2.9,0,4.82,1,5.21,2.08Z" transform="translate(-0.09 -0.56)" style="fill: #fff"/>
      <path d="M143.06,56.71V49.18h-1.32V48.5h1.32v-2h1.07v2h1.38v.68h-1.38v7.53Z" transform="translate(-0.09 -0.56)" style="fill: #fff"/>
    </g>
    <path d="M76,8.64A15.75,15.75,0,1,0,91.75,24.38,15.77,15.77,0,0,0,76,8.64Zm10.52,5.65q.44.46.84,1c-3.94.09-6,3-7.82,5.89l-.1.16-.35.57v0a2.13,2.13,0,0,1-.16.25c-1.7,2.8-3.23,5.16-6.1,5.16s-4.49-2.5-6.26-5.41a21.49,21.49,0,0,0-3.34-4.52A12.53,12.53,0,0,1,64,16.06a24.14,24.14,0,0,1,1.68,2.53c1.6,2.61,3.4,5.57,7.1,5.57s5.5-3,7.1-5.57c1.48-2.44,2.77-4.54,5.24-4.54A3.92,3.92,0,0,1,86.52,14.29Zm-22.17,9c1.72,2.82,3.66,6,7.29,6.56a7.34,7.34,0,0,0,1.18.09,7.68,7.68,0,0,0,1.91-.24,6.26,6.26,0,0,0,.61-.21l.18-.07.42-.18.18-.09.45-.26.09-.05q.25-.16.51-.36l.13-.1.36-.29.14-.14c.12-.1.24-.22.35-.33l.1-.1c.15-.15.29-.3.43-.46l.08-.1.33-.39,0-.07h0l0,0,0-.06.37-.5,0,0a1.71,1.71,0,0,1,.11-.14l.06-.1.22-.32.09-.13.18-.27,0,0a.57.57,0,0,1,.08-.13l.09-.14.29-.46,0-.07,0,0,.45-.75.33-.53h0l0,0,.07-.12.19-.31.12-.19.18-.28.12-.18c.08-.12.15-.24.23-.35l.06-.09c.1-.14.19-.28.29-.41l.1-.14.21-.28a.64.64,0,0,0,.1-.13l.28-.33,0,0,.31-.35.11-.1.24-.23.11-.09a2.16,2.16,0,0,1,.33-.27l0,0a2.82,2.82,0,0,1,.36-.24l.11-.07.29-.16.11-.06.41-.16h0l.43-.13.13,0a2,2,0,0,1,.34-.06l.14,0,.49,0h0a4.45,4.45,0,0,1,1.62.29c.06.13.12.25.17.38-4.21.86-6.51,4.63-8.57,8-2.19,3.58-4.07,6.67-7.71,6.67s-5.53-3.09-7.71-6.67a30.21,30.21,0,0,0-3.63-5.09q.16-.75.39-1.47A25.58,25.58,0,0,1,64.35,23.24ZM76,9.8a14.44,14.44,0,0,1,7.77,2.25c-2.78.64-4.33,3.15-5.7,5.41C76.58,19.89,75.3,22,72.82,22s-3.76-2.1-5.25-4.53a23.21,23.21,0,0,0-2.14-3.11A14.54,14.54,0,0,1,76,9.8ZM76,39A14.62,14.62,0,0,1,61.56,26.44c.36.56.71,1.13,1.07,1.72,2.35,3.84,5,8.19,10.43,8.19S81.14,32,83.48,28.16c2-3.27,3.75-6.14,6.83-6.59A14.56,14.56,0,0,1,76,39Z" transform="translate(-0.09 -0.56)" style="fill: #fff"/>
  </g>
  <rect width="151.81" height="63.63" style="fill: none"/>
</svg>
